<?xml version="1.0" encoding="utf-8"?>
<svg xmlns="http://www.w3.org/2000/svg" style="margin: auto; background: none; display: block; shape-rendering: auto;" width="277" height="253" preserveAspectRatio="xMidYMid">
<style type="text/css">
  text {
    text-anchor: middle; font-size: 34px; opacity: 0;
  }
</style>
<g style="transform-origin:138.5px 126.5px;transform:scale(1)">
<g transform="translate(138.5,126.5)">
  <g transform="translate(0,0)"><g class="path" style="transform: scale(0.91); transform-origin: -82.09px -2.78554px; animation: 1s linear -0.612857s infinite normal forwards running breath-632da38c-6eb7-4bc1-b74c-912fda61b60e;"><path d="M16.12-14.99L16.12-14.99L16.12-14.99Q16.12-13.78 15.66-12.72L15.66-12.72L15.66-12.72Q15.21-11.65 14.41-10.86L14.41-10.86L14.41-10.86Q13.61-10.06 12.54-9.60L12.54-9.60L12.54-9.60Q11.47-9.15 10.26-9.15L10.26-9.15L4.86-9.15L4.86 0L2.72 0L2.72-23.81L10.26-23.81L10.26-23.81Q11.47-23.81 12.54-23.35L12.54-23.35L12.54-23.35Q13.61-22.89 14.41-22.10L14.41-22.10L14.41-22.10Q15.21-21.30 15.66-20.23L15.66-20.23L15.66-20.23Q16.12-19.16 16.12-17.95L16.12-17.95L16.12-14.99zM13.98-14.99L13.98-17.95L13.98-17.95Q13.98-18.74 13.68-19.43L13.68-19.43L13.68-19.43Q13.38-20.12 12.86-20.64L12.86-20.64L12.86-20.64Q12.33-21.17 11.65-21.47L11.65-21.47L11.65-21.47Q10.96-21.76 10.16-21.76L10.16-21.76L4.86-21.76L4.86-11.19L10.16-11.19L10.16-11.19Q10.96-11.19 11.65-11.49L11.65-11.49L11.65-11.49Q12.33-11.79 12.86-12.30L12.86-12.30L12.86-12.30Q13.38-12.82 13.68-13.51L13.68-13.51L13.68-13.51Q13.98-14.19 13.98-14.99L13.98-14.99" fill="#ffffff" stroke="none" stroke-width="none" transform="translate(-91.510009765625,9.119459926060275)" style="fill: rgb(255, 255, 255);"></path></g><g class="path" style="transform: scale(0.91); transform-origin: -68.47px 0.45446px; animation: 1s linear -0.565714s infinite normal forwards running breath-632da38c-6eb7-4bc1-b74c-912fda61b60e;"><path d="M26.56-15.06L24.52-15.06L24.52-15.06Q23.91-15.06 23.37-14.83L23.37-14.83L23.37-14.83Q22.83-14.59 22.43-14.19L22.43-14.19L22.43-14.19Q22.03-13.80 21.80-13.26L21.80-13.26L21.80-13.26Q21.57-12.72 21.57-12.10L21.57-12.10L21.57 0L19.52 0L19.52-17L20.20-17L21.32-15.27L21.32-15.27Q22.01-16.22 23.07-16.78L23.07-16.78L23.07-16.78Q24.12-17.33 25.37-17.33L25.37-17.33L26.56-17.33L26.56-15.06" fill="#ffffff" stroke="none" stroke-width="none" transform="translate(-91.510009765625,9.119459926060275)" style="fill: rgb(255, 255, 255);"></path></g><g class="path" style="transform: scale(0.91); transform-origin: -56.545px 0.61946px; animation: 1s linear -0.518571s infinite normal forwards running breath-632da38c-6eb7-4bc1-b74c-912fda61b60e;"><path d="M40.64-4.67L40.64-4.67L40.64-4.67Q40.64-3.64 40.25-2.72L40.25-2.72L40.25-2.72Q39.86-1.81 39.18-1.13L39.18-1.13L39.18-1.13Q38.50-0.45 37.59-0.06L37.59-0.06L37.59-0.06Q36.67 0.33 35.64 0.33L35.64 0.33L34.28 0.33L34.28 0.33Q33.25 0.33 32.34-0.06L32.34-0.06L32.34-0.06Q31.43-0.45 30.75-1.13L30.75-1.13L30.75-1.13Q30.07-1.81 29.68-2.72L29.68-2.72L29.68-2.72Q29.29-3.64 29.29-4.67L29.29-4.67L29.29-12.33L29.29-12.33Q29.29-13.36 29.68-14.28L29.68-14.28L29.68-14.28Q30.07-15.19 30.75-15.87L30.75-15.87L30.75-15.87Q31.43-16.55 32.34-16.94L32.34-16.94L32.34-16.94Q33.25-17.33 34.28-17.33L34.28-17.33L35.64-17.33L35.64-17.33Q36.67-17.33 37.59-16.94L37.59-16.94L37.59-16.94Q38.50-16.55 39.18-15.87L39.18-15.87L39.18-15.87Q39.86-15.19 40.25-14.28L40.25-14.28L40.25-14.28Q40.64-13.36 40.64-12.33L40.64-12.33L40.64-4.67zM38.60-4.55L38.60-12.45L38.60-12.45Q38.60-13.07 38.37-13.60L38.37-13.60L38.37-13.60Q38.13-14.14 37.74-14.54L37.74-14.54L37.74-14.54Q37.34-14.94 36.80-15.17L36.80-15.17L36.80-15.17Q36.26-15.41 35.64-15.41L35.64-15.41L34.28-15.41L34.28-15.41Q33.67-15.41 33.13-15.17L33.13-15.17L33.13-15.17Q32.59-14.94 32.19-14.54L32.19-14.54L32.19-14.54Q31.79-14.14 31.56-13.60L31.56-13.60L31.56-13.60Q31.33-13.07 31.33-12.45L31.33-12.45L31.33-4.55L31.33-4.55Q31.33-3.93 31.56-3.40L31.56-3.40L31.56-3.40Q31.79-2.86 32.19-2.46L32.19-2.46L32.19-2.46Q32.59-2.06 33.13-1.83L33.13-1.83L33.13-1.83Q33.67-1.59 34.28-1.59L34.28-1.59L35.64-1.59L35.64-1.59Q36.26-1.59 36.80-1.83L36.80-1.83L36.80-1.83Q37.34-2.06 37.74-2.46L37.74-2.46L37.74-2.46Q38.13-2.86 38.37-3.40L38.37-3.40L38.37-3.40Q38.60-3.93 38.60-4.55L38.60-4.55" fill="#ffffff" stroke="none" stroke-width="none" transform="translate(-91.510009765625,9.119459926060275)" style="fill: rgb(255, 255, 255);"></path></g><g class="path" style="transform: scale(0.91); transform-origin: -41.11px 0.61946px; animation: 1s linear -0.471429s infinite normal forwards running breath-632da38c-6eb7-4bc1-b74c-912fda61b60e;"><path d="M56.08-4.67L56.08-4.67L56.08-4.67Q56.08-3.64 55.69-2.72L55.69-2.72L55.69-2.72Q55.30-1.81 54.62-1.13L54.62-1.13L54.62-1.13Q53.94-0.45 53.03-0.06L53.03-0.06L53.03-0.06Q52.11 0.33 51.08 0.33L51.08 0.33L49.72 0.33L49.72 0.33Q48.69 0.33 47.78-0.06L47.78-0.06L47.78-0.06Q46.87-0.45 46.19-1.13L46.19-1.13L46.19-1.13Q45.50-1.81 45.11-2.72L45.11-2.72L45.11-2.72Q44.72-3.64 44.72-4.67L44.72-4.67L44.72-12.33L44.72-12.33Q44.72-13.36 45.11-14.28L45.11-14.28L45.11-14.28Q45.50-15.19 46.19-15.87L46.19-15.87L46.19-15.87Q46.87-16.55 47.78-16.94L47.78-16.94L47.78-16.94Q48.69-17.33 49.72-17.33L49.72-17.33L51.08-17.33L51.08-17.33Q52.11-17.33 53.03-16.94L53.03-16.94L53.03-16.94Q53.94-16.55 54.62-15.87L54.62-15.87L54.62-15.87Q55.30-15.19 55.69-14.28L55.69-14.28L55.69-14.28Q56.08-13.36 56.08-12.33L56.08-12.33L56.08-11.65L54.04-11.32L54.04-12.45L54.04-12.45Q54.04-13.07 53.81-13.60L53.81-13.60L53.81-13.60Q53.57-14.14 53.17-14.54L53.17-14.54L53.17-14.54Q52.78-14.94 52.24-15.17L52.24-15.17L52.24-15.17Q51.70-15.41 51.08-15.41L51.08-15.41L49.72-15.41L49.72-15.41Q49.11-15.41 48.57-15.17L48.57-15.17L48.57-15.17Q48.03-14.94 47.63-14.54L47.63-14.54L47.63-14.54Q47.23-14.14 47.00-13.60L47.00-13.60L47.00-13.60Q46.77-13.07 46.77-12.45L46.77-12.45L46.77-4.55L46.77-4.55Q46.77-3.93 47.00-3.40L47.00-3.40L47.00-3.40Q47.23-2.86 47.63-2.46L47.63-2.46L47.63-2.46Q48.03-2.06 48.57-1.83L48.57-1.83L48.57-1.83Q49.11-1.59 49.72-1.59L49.72-1.59L51.08-1.59L51.08-1.59Q51.70-1.59 52.24-1.83L52.24-1.83L52.24-1.83Q52.78-2.06 53.17-2.46L53.17-2.46L53.17-2.46Q53.57-2.86 53.81-3.40L53.81-3.40L53.81-3.40Q54.04-3.93 54.04-4.55L54.04-4.55L54.04-5.68L56.08-5.35L56.08-4.67" fill="#ffffff" stroke="none" stroke-width="none" transform="translate(-91.510009765625,9.119459926060275)" style="fill: rgb(255, 255, 255);"></path></g><g class="path" style="transform: scale(0.91); transform-origin: -25.67px 0.61946px; animation: 1s linear -0.424286s infinite normal forwards running breath-632da38c-6eb7-4bc1-b74c-912fda61b60e;"><path d="M71.52-4.67L71.52-4.67L71.52-4.67Q71.52-3.64 71.13-2.72L71.13-2.72L71.13-2.72Q70.74-1.81 70.06-1.13L70.06-1.13L70.06-1.13Q69.38-0.45 68.46-0.06L68.46-0.06L68.46-0.06Q67.55 0.33 66.52 0.33L66.52 0.33L65.16 0.33L65.16 0.33Q64.13 0.33 63.22-0.06L63.22-0.06L63.22-0.06Q62.31-0.45 61.63-1.13L61.63-1.13L61.63-1.13Q60.94-1.81 60.55-2.72L60.55-2.72L60.55-2.72Q60.16-3.64 60.16-4.67L60.16-4.67L60.16-12.33L60.16-12.33Q60.16-13.36 60.55-14.28L60.55-14.28L60.55-14.28Q60.94-15.19 61.63-15.87L61.63-15.87L61.63-15.87Q62.31-16.55 63.22-16.94L63.22-16.94L63.22-16.94Q64.13-17.33 65.16-17.33L65.16-17.33L66.52-17.33L66.52-17.33Q67.55-17.33 68.46-16.94L68.46-16.94L68.46-16.94Q69.38-16.55 70.06-15.87L70.06-15.87L70.06-15.87Q70.74-15.19 71.13-14.28L71.13-14.28L71.13-14.28Q71.52-13.36 71.52-12.33L71.52-12.33L71.52-8.33L62.21-8.33L62.21-4.55L62.21-4.55Q62.21-3.93 62.44-3.40L62.44-3.40L62.44-3.40Q62.67-2.86 63.07-2.46L63.07-2.46L63.07-2.46Q63.47-2.06 64.01-1.83L64.01-1.83L64.01-1.83Q64.55-1.59 65.16-1.59L65.16-1.59L66.52-1.59L66.52-1.59Q67.14-1.59 67.68-1.83L67.68-1.83L67.68-1.83Q68.22-2.06 68.61-2.46L68.61-2.46L68.61-2.46Q69.01-2.86 69.25-3.40L69.25-3.40L69.25-3.40Q69.48-3.93 69.48-4.55L69.48-4.55L69.48-5.68L71.52-5.35L71.52-4.67zM69.48-9.93L69.48-12.45L69.48-12.45Q69.48-13.07 69.25-13.60L69.25-13.60L69.25-13.60Q69.01-14.14 68.61-14.54L68.61-14.54L68.61-14.54Q68.22-14.94 67.68-15.17L67.68-15.17L67.68-15.17Q67.14-15.41 66.52-15.41L66.52-15.41L65.16-15.41L65.16-15.41Q64.55-15.41 64.01-15.17L64.01-15.17L64.01-15.17Q63.47-14.94 63.07-14.54L63.07-14.54L63.07-14.54Q62.67-14.14 62.44-13.60L62.44-13.60L62.44-13.60Q62.21-13.07 62.21-12.45L62.21-12.45L62.21-9.93L69.48-9.93" fill="#ffffff" stroke="none" stroke-width="none" transform="translate(-91.510009765625,9.119459926060275)" style="fill: rgb(255, 255, 255);"></path></g><g class="path" style="transform: scale(0.91); transform-origin: -10.065px 0.61946px; animation: 1s linear -0.377143s infinite normal forwards running breath-632da38c-6eb7-4bc1-b74c-912fda61b60e;"><path d="M87.29-4.32L87.29-4.32L87.29-4.32Q87.29-3.29 86.88-2.43L86.88-2.43L86.88-2.43Q86.46-1.58 85.75-0.96L85.75-0.96L85.75-0.96Q85.03-0.35 84.10-0.01L84.10-0.01L84.10-0.01Q83.16 0.33 82.13 0.33L82.13 0.33L80.77 0.33L80.77 0.33Q79.74 0.33 78.80-0.06L78.80-0.06L78.80-0.06Q77.86-0.45 77.16-1.13L77.16-1.13L77.16-1.13Q76.45-1.81 76.03-2.72L76.03-2.72L76.03-2.72Q75.60-3.64 75.60-4.67L75.60-4.67L75.60-5.35L77.65-5.68L77.65-4.55L77.65-4.55Q77.65-3.93 77.90-3.40L77.90-3.40L77.90-3.40Q78.16-2.86 78.59-2.46L78.59-2.46L78.59-2.46Q79.02-2.06 79.59-1.83L79.59-1.83L79.59-1.83Q80.15-1.59 80.77-1.59L80.77-1.59L82.13-1.59L82.13-1.59Q82.74-1.59 83.31-1.78L83.31-1.78L83.31-1.78Q83.87-1.96 84.31-2.30L84.31-2.30L84.31-2.30Q84.75-2.64 85.01-3.12L85.01-3.12L85.01-3.12Q85.27-3.60 85.27-4.22L85.27-4.22L85.27-4.22Q85.27-5.13 84.87-5.71L84.87-5.71L84.87-5.71Q84.47-6.29 83.81-6.68L83.81-6.68L83.81-6.68Q83.16-7.07 82.32-7.33L82.32-7.33L82.32-7.33Q81.48-7.59 80.60-7.84L80.60-7.84L80.60-7.84Q79.72-8.10 78.88-8.43L78.88-8.43L78.88-8.43Q78.04-8.77 77.39-9.31L77.39-9.31L77.39-9.31Q76.73-9.84 76.33-10.66L76.33-10.66L76.33-10.66Q75.94-11.47 75.94-12.68L75.94-12.68L75.94-12.68Q75.94-13.71 76.33-14.57L76.33-14.57L76.33-14.57Q76.73-15.42 77.41-16.04L77.41-16.04L77.41-16.04Q78.09-16.65 79.00-16.99L79.00-16.99L79.00-16.99Q79.90-17.33 80.93-17.33L80.93-17.33L82.13-17.33L82.13-17.33Q83.16-17.33 84.07-16.94L84.07-16.94L84.07-16.94Q84.98-16.55 85.66-15.87L85.66-15.87L85.66-15.87Q86.34-15.19 86.73-14.28L86.73-14.28L86.73-14.28Q87.13-13.36 87.13-12.33L87.13-12.33L87.13-12.27L85.08-11.94L85.08-12.45L85.08-12.45Q85.08-13.07 84.85-13.60L84.85-13.60L84.85-13.60Q84.62-14.14 84.22-14.54L84.22-14.54L84.22-14.54Q83.82-14.94 83.28-15.17L83.28-15.17L83.28-15.17Q82.74-15.41 82.13-15.41L82.13-15.41L80.93-15.41L80.93-15.41Q80.32-15.41 79.78-15.22L79.78-15.22L79.78-15.22Q79.24-15.04 78.84-14.70L78.84-14.70L78.84-14.70Q78.44-14.36 78.21-13.88L78.21-13.88L78.21-13.88Q77.98-13.40 77.98-12.78L77.98-12.78L77.98-12.78Q77.98-11.90 78.38-11.35L78.38-11.35L78.38-11.35Q78.77-10.79 79.43-10.41L79.43-10.41L79.43-10.41Q80.09-10.03 80.92-9.77L80.92-9.77L80.92-9.77Q81.76-9.51 82.63-9.24L82.63-9.24L82.63-9.24Q83.51-8.96 84.34-8.62L84.34-8.62L84.34-8.62Q85.18-8.27 85.84-7.72L85.84-7.72L85.84-7.72Q86.49-7.17 86.89-6.35L86.89-6.35L86.89-6.35Q87.29-5.53 87.29-4.32" fill="#ffffff" stroke="none" stroke-width="none" transform="translate(-91.510009765625,9.119459926060275)" style="fill: rgb(255, 255, 255);"></path></g><g class="path" style="transform: scale(0.91); transform-origin: 5.54499px 0.61946px; animation: 1s linear -0.33s infinite normal forwards running breath-632da38c-6eb7-4bc1-b74c-912fda61b60e;"><path d="M102.90-4.32L102.90-4.32L102.90-4.32Q102.90-3.29 102.48-2.43L102.48-2.43L102.48-2.43Q102.07-1.58 101.35-0.96L101.35-0.96L101.35-0.96Q100.64-0.35 99.70-0.01L99.70-0.01L99.70-0.01Q98.76 0.33 97.73 0.33L97.73 0.33L96.37 0.33L96.37 0.33Q95.34 0.33 94.40-0.06L94.40-0.06L94.40-0.06Q93.47-0.45 92.76-1.13L92.76-1.13L92.76-1.13Q92.06-1.81 91.63-2.72L91.63-2.72L91.63-2.72Q91.21-3.64 91.21-4.67L91.21-4.67L91.21-5.35L93.25-5.68L93.25-4.55L93.25-4.55Q93.25-3.93 93.51-3.40L93.51-3.40L93.51-3.40Q93.77-2.86 94.20-2.46L94.20-2.46L94.20-2.46Q94.63-2.06 95.19-1.83L95.19-1.83L95.19-1.83Q95.76-1.59 96.37-1.59L96.37-1.59L97.73-1.59L97.73-1.59Q98.35-1.59 98.91-1.78L98.91-1.78L98.91-1.78Q99.48-1.96 99.92-2.30L99.92-2.30L99.92-2.30Q100.36-2.64 100.61-3.12L100.61-3.12L100.61-3.12Q100.87-3.60 100.87-4.22L100.87-4.22L100.87-4.22Q100.87-5.13 100.47-5.71L100.47-5.71L100.47-5.71Q100.07-6.29 99.42-6.68L99.42-6.68L99.42-6.68Q98.76-7.07 97.92-7.33L97.92-7.33L97.92-7.33Q97.09-7.59 96.21-7.84L96.21-7.84L96.21-7.84Q95.33-8.10 94.49-8.43L94.49-8.43L94.49-8.43Q93.65-8.77 92.99-9.31L92.99-9.31L92.99-9.31Q92.34-9.84 91.94-10.66L91.94-10.66L91.94-10.66Q91.54-11.47 91.54-12.68L91.54-12.68L91.54-12.68Q91.54-13.71 91.94-14.57L91.94-14.57L91.94-14.57Q92.34-15.42 93.02-16.04L93.02-16.04L93.02-16.04Q93.70-16.65 94.60-16.99L94.60-16.99L94.60-16.99Q95.51-17.33 96.54-17.33L96.54-17.33L97.73-17.33L97.73-17.33Q98.76-17.33 99.68-16.94L99.68-16.94L99.68-16.94Q100.59-16.55 101.27-15.87L101.27-15.87L101.27-15.87Q101.95-15.19 102.34-14.28L102.34-14.28L102.34-14.28Q102.73-13.36 102.73-12.33L102.73-12.33L102.73-12.27L100.69-11.94L100.69-12.45L100.69-12.45Q100.69-13.07 100.46-13.60L100.46-13.60L100.46-13.60Q100.22-14.14 99.83-14.54L99.83-14.54L99.83-14.54Q99.43-14.94 98.89-15.17L98.89-15.17L98.89-15.17Q98.35-15.41 97.73-15.41L97.73-15.41L96.54-15.41L96.54-15.41Q95.92-15.41 95.38-15.22L95.38-15.22L95.38-15.22Q94.84-15.04 94.45-14.70L94.45-14.70L94.45-14.70Q94.05-14.36 93.82-13.88L93.82-13.88L93.82-13.88Q93.58-13.40 93.58-12.78L93.58-12.78L93.58-12.78Q93.58-11.90 93.98-11.35L93.98-11.35L93.98-11.35Q94.38-10.79 95.04-10.41L95.04-10.41L95.04-10.41Q95.69-10.03 96.53-9.77L96.53-9.77L96.53-9.77Q97.37-9.51 98.24-9.24L98.24-9.24L98.24-9.24Q99.11-8.96 99.95-8.62L99.95-8.62L99.95-8.62Q100.79-8.27 101.44-7.72L101.44-7.72L101.44-7.72Q102.10-7.17 102.50-6.35L102.50-6.35L102.50-6.35Q102.90-5.53 102.90-4.32" fill="#ffffff" stroke="none" stroke-width="none" transform="translate(-91.510009765625,9.119459926060275)" style="fill: rgb(255, 255, 255);"></path></g><g class="path" style="transform: scale(0.91); transform-origin: 20.98px 0.61946px; animation: 1s linear -0.282857s infinite normal forwards running breath-632da38c-6eb7-4bc1-b74c-912fda61b60e;"><path d="M118.17 0L117.49 0L116.36-1.69L116.36-1.69Q115.66-0.78 114.62-0.22L114.62-0.22L114.62-0.22Q113.57 0.33 112.33 0.33L112.33 0.33L111.81 0.33L111.81 0.33Q110.78 0.33 109.87-0.06L109.87-0.06L109.87-0.06Q108.96-0.45 108.28-1.13L108.28-1.13L108.28-1.13Q107.59-1.81 107.20-2.72L107.20-2.72L107.20-2.72Q106.81-3.64 106.81-4.67L106.81-4.67L106.81-4.83L106.81-4.83Q106.81-5.86 107.20-6.77L107.20-6.77L107.20-6.77Q107.59-7.69 108.28-8.37L108.28-8.37L108.28-8.37Q108.96-9.05 109.87-9.44L109.87-9.44L109.87-9.44Q110.78-9.83 111.81-9.83L111.81-9.83L116.13-9.83L116.13-12.45L116.13-12.45Q116.13-13.07 115.90-13.60L115.90-13.60L115.90-13.60Q115.66-14.14 115.26-14.54L115.26-14.54L115.26-14.54Q114.87-14.94 114.33-15.17L114.33-15.17L114.33-15.17Q113.79-15.41 113.17-15.41L113.17-15.41L111.98-15.41L111.98-15.41Q111.36-15.41 110.82-15.17L110.82-15.17L110.82-15.17Q110.28-14.94 109.89-14.54L109.89-14.54L109.89-14.54Q109.49-14.14 109.25-13.60L109.25-13.60L109.25-13.60Q109.02-13.07 109.02-12.45L109.02-12.45L109.02-11.84L106.98-12.17L106.98-12.33L106.98-12.33Q106.98-13.36 107.37-14.28L107.37-14.28L107.37-14.28Q107.76-15.19 108.44-15.87L108.44-15.87L108.44-15.87Q109.12-16.55 110.04-16.94L110.04-16.94L110.04-16.94Q110.95-17.33 111.98-17.33L111.98-17.33L113.17-17.33L113.17-17.33Q114.20-17.33 115.12-16.94L115.12-16.94L115.12-16.94Q116.03-16.55 116.71-15.87L116.71-15.87L116.71-15.87Q117.39-15.19 117.78-14.28L117.78-14.28L117.78-14.28Q118.17-13.36 118.17-12.33L118.17-12.33L118.17 0zM116.13-4.55L116.13-8.23L111.81-8.23L111.81-8.23Q111.20-8.23 110.66-8.00L110.66-8.00L110.66-8.00Q110.12-7.77 109.72-7.36L109.72-7.36L109.72-7.36Q109.32-6.96 109.09-6.42L109.09-6.42L109.09-6.42Q108.86-5.88 108.86-5.26L108.86-5.26L108.86-4.55L108.86-4.55Q108.86-3.93 109.09-3.40L109.09-3.40L109.09-3.40Q109.32-2.86 109.72-2.46L109.72-2.46L109.72-2.46Q110.12-2.06 110.66-1.83L110.66-1.83L110.66-1.83Q111.20-1.59 111.81-1.59L111.81-1.59L113.17-1.59L113.17-1.59Q113.79-1.59 114.33-1.83L114.33-1.83L114.33-1.83Q114.87-2.06 115.26-2.46L115.26-2.46L115.26-2.46Q115.66-2.86 115.90-3.40L115.90-3.40L115.90-3.40Q116.13-3.93 116.13-4.55L116.13-4.55" fill="#ffffff" stroke="none" stroke-width="none" transform="translate(-91.510009765625,9.119459926060275)" style="fill: rgb(255, 255, 255);"></path></g><g class="path" style="transform: scale(0.91); transform-origin: 36.42px 0.45446px; animation: 1s linear -0.235714s infinite normal forwards running breath-632da38c-6eb7-4bc1-b74c-912fda61b60e;"><path d="M133.61 0L131.57 0L131.57-12.45L131.57-12.45Q131.57-13.07 131.33-13.60L131.33-13.60L131.33-13.60Q131.10-14.14 130.70-14.54L130.70-14.54L130.70-14.54Q130.31-14.94 129.77-15.17L129.77-15.17L129.77-15.17Q129.23-15.41 128.61-15.41L128.61-15.41L127.25-15.41L127.25-15.41Q126.64-15.41 126.10-15.17L126.10-15.17L126.10-15.17Q125.56-14.94 125.16-14.54L125.16-14.54L125.16-14.54Q124.76-14.14 124.53-13.60L124.53-13.60L124.53-13.60Q124.30-13.07 124.30-12.45L124.30-12.45L124.30 0L122.25 0L122.25-17L122.93-17L124.05-15.27L124.05-15.27Q124.74-16.22 125.80-16.78L125.80-16.78L125.80-16.78Q126.85-17.33 128.10-17.33L128.10-17.33L128.61-17.33L128.61-17.33Q129.64-17.33 130.55-16.94L130.55-16.94L130.55-16.94Q131.47-16.55 132.15-15.87L132.15-15.87L132.15-15.87Q132.83-15.19 133.22-14.28L133.22-14.28L133.22-14.28Q133.61-13.36 133.61-12.33L133.61-12.33L133.61 0" fill="#ffffff" stroke="none" stroke-width="none" transform="translate(-91.510009765625,9.119459926060275)" style="fill: rgb(255, 255, 255);"></path></g><g class="path" style="transform: scale(0.91); transform-origin: 51.86px -2.62054px; animation: 1s linear -0.188571s infinite normal forwards running breath-632da38c-6eb7-4bc1-b74c-912fda61b60e;"><path d="M149.05 0L148.37 0L147.24-1.73L147.24-1.73Q146.54-0.78 145.50-0.22L145.50-0.22L145.50-0.22Q144.45 0.33 143.21 0.33L143.21 0.33L142.69 0.33L142.69 0.33Q141.66 0.33 140.75-0.06L140.75-0.06L140.75-0.06Q139.83-0.45 139.15-1.13L139.15-1.13L139.15-1.13Q138.47-1.81 138.08-2.72L138.08-2.72L138.08-2.72Q137.69-3.64 137.69-4.67L137.69-4.67L137.69-12.33L137.69-12.33Q137.69-13.36 138.08-14.28L138.08-14.28L138.08-14.28Q138.47-15.19 139.15-15.87L139.15-15.87L139.15-15.87Q139.83-16.55 140.75-16.94L140.75-16.94L140.75-16.94Q141.66-17.33 142.69-17.33L142.69-17.33L143.21-17.33L143.21-17.33Q144.35-17.33 145.33-16.87L145.33-16.87L145.33-16.87Q146.31-16.40 147.01-15.57L147.01-15.57L147.01-23.81L149.05-23.81L149.05 0zM147.01-4.55L147.01-12.45L147.01-12.45Q147.01-13.07 146.77-13.60L146.77-13.60L146.77-13.60Q146.54-14.14 146.14-14.54L146.14-14.54L146.14-14.54Q145.75-14.94 145.21-15.17L145.21-15.17L145.21-15.17Q144.67-15.41 144.05-15.41L144.05-15.41L142.69-15.41L142.69-15.41Q142.08-15.41 141.54-15.17L141.54-15.17L141.54-15.17Q141.00-14.94 140.60-14.54L140.60-14.54L140.60-14.54Q140.20-14.14 139.97-13.60L139.97-13.60L139.97-13.60Q139.74-13.07 139.74-12.45L139.74-12.45L139.74-4.55L139.74-4.55Q139.74-3.93 139.97-3.40L139.97-3.40L139.97-3.40Q140.20-2.86 140.60-2.46L140.60-2.46L140.60-2.46Q141.00-2.06 141.54-1.83L141.54-1.83L141.54-1.83Q142.08-1.59 142.69-1.59L142.69-1.59L144.05-1.59L144.05-1.59Q144.67-1.59 145.21-1.83L145.21-1.83L145.21-1.83Q145.75-2.06 146.14-2.46L146.14-2.46L146.14-2.46Q146.54-2.86 146.77-3.40L146.77-3.40L146.77-3.40Q147.01-3.93 147.01-4.55L147.01-4.55" fill="#ffffff" stroke="none" stroke-width="none" transform="translate(-91.510009765625,9.119459926060275)" style="fill: rgb(255, 255, 255);"></path></g><g class="path" style="transform: scale(0.91); transform-origin: 67.3px 0.61946px; animation: 1s linear -0.141429s infinite normal forwards running breath-632da38c-6eb7-4bc1-b74c-912fda61b60e;"><path d="M164.49-4.67L164.49-4.67L164.49-4.67Q164.49-3.64 164.10-2.72L164.10-2.72L164.10-2.72Q163.71-1.81 163.03-1.13L163.03-1.13L163.03-1.13Q162.35-0.45 161.43-0.06L161.43-0.06L161.43-0.06Q160.52 0.33 159.49 0.33L159.49 0.33L158.13 0.33L158.13 0.33Q157.10 0.33 156.19-0.06L156.19-0.06L156.19-0.06Q155.27-0.45 154.59-1.13L154.59-1.13L154.59-1.13Q153.91-1.81 153.52-2.72L153.52-2.72L153.52-2.72Q153.13-3.64 153.13-4.67L153.13-4.67L153.13-12.33L153.13-12.33Q153.13-13.36 153.52-14.28L153.52-14.28L153.52-14.28Q153.91-15.19 154.59-15.87L154.59-15.87L154.59-15.87Q155.27-16.55 156.19-16.94L156.19-16.94L156.19-16.94Q157.10-17.33 158.13-17.33L158.13-17.33L159.49-17.33L159.49-17.33Q160.52-17.33 161.43-16.94L161.43-16.94L161.43-16.94Q162.35-16.55 163.03-15.87L163.03-15.87L163.03-15.87Q163.71-15.19 164.10-14.28L164.10-14.28L164.10-14.28Q164.49-13.36 164.49-12.33L164.49-12.33L164.49-4.67zM162.45-4.55L162.45-12.45L162.45-12.45Q162.45-13.07 162.21-13.60L162.21-13.60L162.21-13.60Q161.98-14.14 161.58-14.54L161.58-14.54L161.58-14.54Q161.18-14.94 160.65-15.17L160.65-15.17L160.65-15.17Q160.11-15.41 159.49-15.41L159.49-15.41L158.13-15.41L158.13-15.41Q157.52-15.41 156.98-15.17L156.98-15.17L156.98-15.17Q156.44-14.94 156.04-14.54L156.04-14.54L156.04-14.54Q155.64-14.14 155.41-13.60L155.41-13.60L155.41-13.60Q155.17-13.07 155.17-12.45L155.17-12.45L155.17-4.55L155.17-4.55Q155.17-3.93 155.41-3.40L155.41-3.40L155.41-3.40Q155.64-2.86 156.04-2.46L156.04-2.46L156.04-2.46Q156.44-2.06 156.98-1.83L156.98-1.83L156.98-1.83Q157.52-1.59 158.13-1.59L158.13-1.59L159.49-1.59L159.49-1.59Q160.11-1.59 160.65-1.83L160.65-1.83L160.65-1.83Q161.18-2.06 161.58-2.46L161.58-2.46L161.58-2.46Q161.98-2.86 162.21-3.40L162.21-3.40L162.21-3.40Q162.45-3.93 162.45-4.55L162.45-4.55" fill="#ffffff" stroke="none" stroke-width="none" transform="translate(-91.510009765625,9.119459926060275)" style="fill: rgb(255, 255, 255);"></path></g><g class="path" style="transform: scale(0.91); transform-origin: 78.34px 7.83946px; animation: 1s linear -0.0942857s infinite normal forwards running breath-632da38c-6eb7-4bc1-b74c-912fda61b60e;"><path d="M171.13 0L168.57 0L168.57-2.56L171.13-2.56L171.13 0" fill="#ffffff" stroke="none" stroke-width="none" transform="translate(-91.510009765625,9.119459926060275)" style="fill: rgb(255, 255, 255);"></path></g><g class="path" style="transform: scale(0.91); transform-origin: 85.645px 7.83946px; animation: 1s linear -0.0471429s infinite normal forwards running breath-632da38c-6eb7-4bc1-b74c-912fda61b60e;"><path d="M178.43 0L175.88 0L175.88-2.56L178.43-2.56L178.43 0" fill="#ffffff" stroke="none" stroke-width="none" transform="translate(-91.510009765625,9.119459926060275)" style="fill: rgb(255, 255, 255);"></path></g><g class="path" style="transform: scale(0.91); transform-origin: 92.95px 7.83946px; animation: 1s linear 0s infinite normal forwards running breath-632da38c-6eb7-4bc1-b74c-912fda61b60e;"><path d="M185.74 0L183.18 0L183.18-2.56L185.74-2.56L185.74 0" fill="#ffffff" stroke="none" stroke-width="none" transform="translate(-91.510009765625,9.119459926060275)" style="fill: rgb(255, 255, 255);"></path></g></g>
</g>
</g>
<style id="breath-632da38c-6eb7-4bc1-b74c-912fda61b60e" data-anikit="">@keyframes breath-632da38c-6eb7-4bc1-b74c-912fda61b60e
{
  0% {
    animation-timing-function: cubic-bezier(0.9647,0.2413,-0.0705,0.7911);
    transform: scale(0.9099999999999999);
  }
  51% {
    animation-timing-function: cubic-bezier(0.9226,0.2631,-0.0308,0.7628);
    transform: scale(1.02994);
  }
  100% {
    transform: scale(0.9099999999999999);
  }
}</style></svg>